<mxfile host="app.diagrams.net" agent="Mozilla/5.0 (Windows NT 10.0; Win64; x64; rv:139.0) Gecko/20100101 Firefox/139.0" version="27.1.0">
  <diagram name="Seite-1" id="hUIU0aFVNDoCWeIuMBN7">
    <mxGraphModel dx="1188" dy="633" grid="1" gridSize="10" guides="1" tooltips="1" connect="1" arrows="1" fold="1" page="1" pageScale="1" pageWidth="827" pageHeight="1169" math="0" shadow="0">
      <root>
        <mxCell id="0" />
        <mxCell id="1" parent="0" />
        <mxCell id="1A_BG_B9vaxSZ9kSDvP0-1" value="Legend" style="rounded=0;whiteSpace=wrap;html=1;align=center;verticalAlign=top;fontFamily=Helvetica;fontSize=11;labelBackgroundColor=none;" vertex="1" parent="1">
          <mxGeometry width="90" height="270" as="geometry" />
        </mxCell>
        <mxCell id="1A_BG_B9vaxSZ9kSDvP0-2" value="" style="group" vertex="1" connectable="0" parent="1">
          <mxGeometry x="120" width="850" height="490" as="geometry" />
        </mxCell>
        <mxCell id="1A_BG_B9vaxSZ9kSDvP0-3" value="" style="rounded=0;whiteSpace=wrap;html=1;strokeColor=none;align=center;verticalAlign=middle;fontFamily=Helvetica;fontSize=11;labelBackgroundColor=none;fillColor=#C6C6C6;fontColor=#333333;" vertex="1" parent="1A_BG_B9vaxSZ9kSDvP0-2">
          <mxGeometry y="440" width="850" height="50" as="geometry" />
        </mxCell>
        <mxCell id="1A_BG_B9vaxSZ9kSDvP0-4" value="" style="rounded=0;whiteSpace=wrap;html=1;strokeColor=none;align=center;verticalAlign=middle;fontFamily=Helvetica;fontSize=11;labelBackgroundColor=none;fillColor=#C6C6C6;fontColor=#333333;" vertex="1" parent="1A_BG_B9vaxSZ9kSDvP0-2">
          <mxGeometry width="850" height="50" as="geometry" />
        </mxCell>
        <mxCell id="1A_BG_B9vaxSZ9kSDvP0-5" value="main.h" style="rounded=0;whiteSpace=wrap;html=1;fontFamily=Helvetica;fontSize=11;labelBackgroundColor=none;fillColor=#f5f5f5;strokeColor=#666666;fontColor=#333333;" vertex="1" parent="1A_BG_B9vaxSZ9kSDvP0-2">
          <mxGeometry x="238.56" y="450" width="40" height="20" as="geometry" />
        </mxCell>
        <mxCell id="1A_BG_B9vaxSZ9kSDvP0-6" value="Application" style="rounded=0;whiteSpace=wrap;html=1;strokeColor=#666666;align=center;verticalAlign=middle;fontFamily=Helvetica;fontSize=11;labelBackgroundColor=none;fillColor=#f5f5f5;fontColor=#333333;" vertex="1" parent="1A_BG_B9vaxSZ9kSDvP0-2">
          <mxGeometry x="198.56" y="10" width="120" height="30" as="geometry" />
        </mxCell>
        <mxCell id="1A_BG_B9vaxSZ9kSDvP0-7" value="&lt;div&gt;Specific Project using the&amp;nbsp;&lt;/div&gt;&lt;div&gt;Voice Mail Box Platform&lt;/div&gt;" style="text;html=1;align=center;verticalAlign=middle;whiteSpace=wrap;rounded=0;fontFamily=Helvetica;fontSize=11;fontColor=default;labelBackgroundColor=none;" vertex="1" parent="1A_BG_B9vaxSZ9kSDvP0-2">
          <mxGeometry x="340" y="10" width="200" height="30" as="geometry" />
        </mxCell>
        <mxCell id="1A_BG_B9vaxSZ9kSDvP0-8" value="" style="group" vertex="1" connectable="0" parent="1A_BG_B9vaxSZ9kSDvP0-2">
          <mxGeometry y="60" width="770" height="370" as="geometry" />
        </mxCell>
        <mxCell id="1A_BG_B9vaxSZ9kSDvP0-9" value="" style="rounded=0;whiteSpace=wrap;html=1;align=center;verticalAlign=middle;fontFamily=Helvetica;fontSize=11;labelBackgroundColor=none;" vertex="1" parent="1A_BG_B9vaxSZ9kSDvP0-8">
          <mxGeometry width="770.0000000000001" height="370" as="geometry" />
        </mxCell>
        <mxCell id="1A_BG_B9vaxSZ9kSDvP0-10" value="BSP_VoiceMailBox" style="text;html=1;align=center;verticalAlign=middle;whiteSpace=wrap;rounded=0;fontFamily=Helvetica;fontSize=11;fontColor=default;labelBackgroundColor=none;" vertex="1" parent="1A_BG_B9vaxSZ9kSDvP0-8">
          <mxGeometry width="162.8846153846154" height="30" as="geometry" />
        </mxCell>
        <mxCell id="1A_BG_B9vaxSZ9kSDvP0-11" value="NFC" style="rounded=0;whiteSpace=wrap;html=1;fillColor=#d5e8d4;strokeColor=#82b366;glass=0;sketch=1;curveFitting=1;jiggle=2;" vertex="1" parent="1A_BG_B9vaxSZ9kSDvP0-8">
          <mxGeometry x="431.6610344827587" y="200" width="40.8498275862069" height="20" as="geometry" />
        </mxCell>
        <mxCell id="1A_BG_B9vaxSZ9kSDvP0-12" style="rounded=0;orthogonalLoop=1;jettySize=auto;html=1;exitX=0.75;exitY=0;exitDx=0;exitDy=0;entryX=0.5;entryY=1;entryDx=0;entryDy=0;" edge="1" parent="1A_BG_B9vaxSZ9kSDvP0-8" source="1A_BG_B9vaxSZ9kSDvP0-14" target="1A_BG_B9vaxSZ9kSDvP0-17">
          <mxGeometry relative="1" as="geometry" />
        </mxCell>
        <mxCell id="1A_BG_B9vaxSZ9kSDvP0-13" style="rounded=0;orthogonalLoop=1;jettySize=auto;html=1;exitX=0.25;exitY=0;exitDx=0;exitDy=0;entryX=0.5;entryY=1;entryDx=0;entryDy=0;" edge="1" parent="1A_BG_B9vaxSZ9kSDvP0-8" source="1A_BG_B9vaxSZ9kSDvP0-14" target="1A_BG_B9vaxSZ9kSDvP0-15">
          <mxGeometry relative="1" as="geometry" />
        </mxCell>
        <mxCell id="1A_BG_B9vaxSZ9kSDvP0-14" value="SpiritDSP_MP3" style="rounded=0;whiteSpace=wrap;html=1;fillColor=#ffe6cc;strokeColor=#d79b00;" vertex="1" parent="1A_BG_B9vaxSZ9kSDvP0-8">
          <mxGeometry x="564.4196551724137" y="200" width="152.67241379310346" height="20" as="geometry" />
        </mxCell>
        <mxCell id="1A_BG_B9vaxSZ9kSDvP0-15" value="&lt;font style=&quot;font-size: 7px;&quot;&gt;MP3 encoder&lt;/font&gt;" style="rounded=0;whiteSpace=wrap;html=1;fillColor=#e1d5e7;strokeColor=#9673a6;align=center;verticalAlign=middle;labelPosition=center;verticalLabelPosition=middle;" vertex="1" parent="1A_BG_B9vaxSZ9kSDvP0-8">
          <mxGeometry x="564.421697612732" y="160" width="74.03846153846155" height="20" as="geometry" />
        </mxCell>
        <mxCell id="1A_BG_B9vaxSZ9kSDvP0-16" style="rounded=0;orthogonalLoop=1;jettySize=auto;html=1;exitX=0.5;exitY=0;exitDx=0;exitDy=0;entryX=1;entryY=1;entryDx=0;entryDy=0;" edge="1" parent="1A_BG_B9vaxSZ9kSDvP0-8" source="1A_BG_B9vaxSZ9kSDvP0-17" target="1A_BG_B9vaxSZ9kSDvP0-22">
          <mxGeometry relative="1" as="geometry" />
        </mxCell>
        <mxCell id="1A_BG_B9vaxSZ9kSDvP0-17" value="&lt;font style=&quot;font-size: 7px;&quot;&gt;MP3 decoder&lt;/font&gt;" style="rounded=0;whiteSpace=wrap;html=1;fillColor=#e1d5e7;strokeColor=#9673a6;align=center;verticalAlign=middle;labelPosition=center;verticalLabelPosition=middle;" vertex="1" parent="1A_BG_B9vaxSZ9kSDvP0-8">
          <mxGeometry x="644.0758488063661" y="160" width="74.03846153846155" height="20" as="geometry" />
        </mxCell>
        <mxCell id="1A_BG_B9vaxSZ9kSDvP0-18" value="File" style="rounded=0;whiteSpace=wrap;html=1;fillColor=#e1d5e7;strokeColor=#9673a6;" vertex="1" parent="1A_BG_B9vaxSZ9kSDvP0-8">
          <mxGeometry x="484.7644827586208" y="160" width="66.37931034482759" height="20" as="geometry" />
        </mxCell>
        <mxCell id="1A_BG_B9vaxSZ9kSDvP0-19" value="FAT FS" style="rounded=0;whiteSpace=wrap;html=1;fillColor=#ffe6cc;strokeColor=#d79b00;" vertex="1" parent="1A_BG_B9vaxSZ9kSDvP0-8">
          <mxGeometry x="484.7644827586208" y="200" width="66.37931034482759" height="20" as="geometry" />
        </mxCell>
        <mxCell id="1A_BG_B9vaxSZ9kSDvP0-20" style="edgeStyle=orthogonalEdgeStyle;rounded=0;orthogonalLoop=1;jettySize=auto;html=1;exitX=0.5;exitY=0;exitDx=0;exitDy=0;entryX=0.5;entryY=1;entryDx=0;entryDy=0;" edge="1" parent="1A_BG_B9vaxSZ9kSDvP0-8" source="1A_BG_B9vaxSZ9kSDvP0-19" target="1A_BG_B9vaxSZ9kSDvP0-18">
          <mxGeometry relative="1" as="geometry" />
        </mxCell>
        <mxCell id="1A_BG_B9vaxSZ9kSDvP0-21" value="WAV File" style="rounded=0;whiteSpace=wrap;html=1;fillColor=#e1d5e7;strokeColor=#9673a6;" vertex="1" parent="1A_BG_B9vaxSZ9kSDvP0-8">
          <mxGeometry x="444.9368965517242" y="120" width="79.65517241379311" height="20" as="geometry" />
        </mxCell>
        <mxCell id="1A_BG_B9vaxSZ9kSDvP0-22" value="MP3 File" style="rounded=0;whiteSpace=wrap;html=1;fillColor=#e1d5e7;strokeColor=#9673a6;align=center;verticalAlign=middle;fontFamily=Helvetica;fontSize=12;fontColor=default;glass=0;" vertex="1" parent="1A_BG_B9vaxSZ9kSDvP0-8">
          <mxGeometry x="537.8679310344828" y="120" width="66.37931034482759" height="20" as="geometry" />
        </mxCell>
        <mxCell id="1A_BG_B9vaxSZ9kSDvP0-23" value="AudioPlayer" style="rounded=0;whiteSpace=wrap;html=1;strokeColor=#9673a6;align=center;verticalAlign=middle;fontFamily=Helvetica;fontSize=11;labelBackgroundColor=none;fillColor=#e1d5e7;" vertex="1" parent="1A_BG_B9vaxSZ9kSDvP0-8">
          <mxGeometry x="498.04034482758635" y="80" width="92.93103448275863" height="20" as="geometry" />
        </mxCell>
        <mxCell id="1A_BG_B9vaxSZ9kSDvP0-24" value="AudioRecorder" style="rounded=0;whiteSpace=wrap;html=1;strokeColor=#9673a6;align=center;verticalAlign=middle;fontFamily=Helvetica;fontSize=11;labelBackgroundColor=none;fillColor=#e1d5e7;" vertex="1" parent="1A_BG_B9vaxSZ9kSDvP0-8">
          <mxGeometry x="378.5575862068966" y="80" width="106.20689655172414" height="20" as="geometry" />
        </mxCell>
        <mxCell id="1A_BG_B9vaxSZ9kSDvP0-25" style="rounded=0;orthogonalLoop=1;jettySize=auto;html=1;exitX=0.5;exitY=0;exitDx=0;exitDy=0;entryX=0.5;entryY=1;entryDx=0;entryDy=0;" edge="1" parent="1A_BG_B9vaxSZ9kSDvP0-8" source="1A_BG_B9vaxSZ9kSDvP0-18" target="1A_BG_B9vaxSZ9kSDvP0-21">
          <mxGeometry relative="1" as="geometry" />
        </mxCell>
        <mxCell id="1A_BG_B9vaxSZ9kSDvP0-26" style="rounded=0;orthogonalLoop=1;jettySize=auto;html=1;exitX=0.5;exitY=0;exitDx=0;exitDy=0;entryX=0.25;entryY=1;entryDx=0;entryDy=0;" edge="1" parent="1A_BG_B9vaxSZ9kSDvP0-8" source="1A_BG_B9vaxSZ9kSDvP0-18" target="1A_BG_B9vaxSZ9kSDvP0-22">
          <mxGeometry relative="1" as="geometry" />
        </mxCell>
        <mxCell id="1A_BG_B9vaxSZ9kSDvP0-27" style="rounded=0;orthogonalLoop=1;jettySize=auto;html=1;exitX=0.5;exitY=0;exitDx=0;exitDy=0;entryX=0.75;entryY=1;entryDx=0;entryDy=0;" edge="1" parent="1A_BG_B9vaxSZ9kSDvP0-8" source="1A_BG_B9vaxSZ9kSDvP0-15" target="1A_BG_B9vaxSZ9kSDvP0-22">
          <mxGeometry relative="1" as="geometry" />
        </mxCell>
        <mxCell id="1A_BG_B9vaxSZ9kSDvP0-28" style="edgeStyle=none;shape=connector;rounded=0;orthogonalLoop=1;jettySize=auto;html=1;exitX=0.5;exitY=0;exitDx=0;exitDy=0;entryX=0.25;entryY=1;entryDx=0;entryDy=0;strokeColor=default;align=center;verticalAlign=middle;fontFamily=Helvetica;fontSize=11;fontColor=default;labelBackgroundColor=none;endArrow=classic;" edge="1" parent="1A_BG_B9vaxSZ9kSDvP0-8" source="1A_BG_B9vaxSZ9kSDvP0-21" target="1A_BG_B9vaxSZ9kSDvP0-23">
          <mxGeometry relative="1" as="geometry" />
        </mxCell>
        <mxCell id="1A_BG_B9vaxSZ9kSDvP0-29" style="edgeStyle=none;shape=connector;rounded=0;orthogonalLoop=1;jettySize=auto;html=1;exitX=0.5;exitY=0;exitDx=0;exitDy=0;entryX=0.5;entryY=1;entryDx=0;entryDy=0;strokeColor=default;align=center;verticalAlign=middle;fontFamily=Helvetica;fontSize=11;fontColor=default;labelBackgroundColor=none;endArrow=classic;" edge="1" parent="1A_BG_B9vaxSZ9kSDvP0-8" source="1A_BG_B9vaxSZ9kSDvP0-22" target="1A_BG_B9vaxSZ9kSDvP0-23">
          <mxGeometry relative="1" as="geometry" />
        </mxCell>
        <mxCell id="1A_BG_B9vaxSZ9kSDvP0-30" style="edgeStyle=none;shape=connector;rounded=0;orthogonalLoop=1;jettySize=auto;html=1;exitX=0.5;exitY=0;exitDx=0;exitDy=0;entryX=0.5;entryY=1;entryDx=0;entryDy=0;strokeColor=default;align=center;verticalAlign=middle;fontFamily=Helvetica;fontSize=11;fontColor=default;labelBackgroundColor=none;endArrow=classic;" edge="1" parent="1A_BG_B9vaxSZ9kSDvP0-8" source="1A_BG_B9vaxSZ9kSDvP0-21" target="1A_BG_B9vaxSZ9kSDvP0-24">
          <mxGeometry relative="1" as="geometry" />
        </mxCell>
        <mxCell id="1A_BG_B9vaxSZ9kSDvP0-31" style="edgeStyle=none;shape=connector;rounded=0;orthogonalLoop=1;jettySize=auto;html=1;exitX=0.5;exitY=0;exitDx=0;exitDy=0;entryX=0.75;entryY=1;entryDx=0;entryDy=0;strokeColor=default;align=center;verticalAlign=middle;fontFamily=Helvetica;fontSize=11;fontColor=default;labelBackgroundColor=none;endArrow=classic;" edge="1" parent="1A_BG_B9vaxSZ9kSDvP0-8" source="1A_BG_B9vaxSZ9kSDvP0-22" target="1A_BG_B9vaxSZ9kSDvP0-24">
          <mxGeometry relative="1" as="geometry" />
        </mxCell>
        <mxCell id="1A_BG_B9vaxSZ9kSDvP0-32" value="" style="group" vertex="1" connectable="0" parent="1A_BG_B9vaxSZ9kSDvP0-8">
          <mxGeometry x="143.56" y="260" width="230" height="80" as="geometry" />
        </mxCell>
        <mxCell id="1A_BG_B9vaxSZ9kSDvP0-33" value="HAL Abstraction" style="rounded=0;whiteSpace=wrap;html=1;fillColor=#dae8fc;strokeColor=#6c8ebf;verticalAlign=top;" vertex="1" parent="1A_BG_B9vaxSZ9kSDvP0-32">
          <mxGeometry width="230" height="80" as="geometry" />
        </mxCell>
        <mxCell id="1A_BG_B9vaxSZ9kSDvP0-34" value="HAL Functions" style="rounded=0;whiteSpace=wrap;html=1;fillColor=#dae8fc;strokeColor=#6c8ebf;" vertex="1" parent="1A_BG_B9vaxSZ9kSDvP0-32">
          <mxGeometry x="10" y="40" width="100" height="30" as="geometry" />
        </mxCell>
        <mxCell id="1A_BG_B9vaxSZ9kSDvP0-35" value="Interrupt callbacks" style="rounded=0;whiteSpace=wrap;html=1;fillColor=#dae8fc;strokeColor=#6c8ebf;" vertex="1" parent="1A_BG_B9vaxSZ9kSDvP0-32">
          <mxGeometry x="120" y="40" width="100" height="30" as="geometry" />
        </mxCell>
        <mxCell id="1A_BG_B9vaxSZ9kSDvP0-36" style="edgeStyle=none;shape=connector;rounded=0;orthogonalLoop=1;jettySize=auto;html=1;exitX=0.5;exitY=0;exitDx=0;exitDy=0;entryX=0.12;entryY=1.017;entryDx=0;entryDy=0;strokeColor=default;align=center;verticalAlign=middle;fontFamily=Helvetica;fontSize=11;fontColor=default;labelBackgroundColor=none;endArrow=classic;entryPerimeter=0;" edge="1" parent="1A_BG_B9vaxSZ9kSDvP0-8" source="1A_BG_B9vaxSZ9kSDvP0-37" target="1A_BG_B9vaxSZ9kSDvP0-61">
          <mxGeometry relative="1" as="geometry" />
        </mxCell>
        <mxCell id="1A_BG_B9vaxSZ9kSDvP0-37" value="AnalogPin" style="rounded=0;whiteSpace=wrap;html=1;fillColor=#d5e8d4;strokeColor=#82b366;" vertex="1" parent="1A_BG_B9vaxSZ9kSDvP0-8">
          <mxGeometry x="78.56" y="200" width="60" height="20" as="geometry" />
        </mxCell>
        <mxCell id="1A_BG_B9vaxSZ9kSDvP0-38" style="edgeStyle=none;shape=connector;rounded=0;orthogonalLoop=1;jettySize=auto;html=1;exitX=0.5;exitY=0;exitDx=0;exitDy=0;entryX=0.377;entryY=1.003;entryDx=0;entryDy=0;strokeColor=default;align=center;verticalAlign=middle;fontFamily=Helvetica;fontSize=11;fontColor=default;labelBackgroundColor=none;endArrow=classic;entryPerimeter=0;" edge="1" parent="1A_BG_B9vaxSZ9kSDvP0-8" source="1A_BG_B9vaxSZ9kSDvP0-39" target="1A_BG_B9vaxSZ9kSDvP0-61">
          <mxGeometry relative="1" as="geometry" />
        </mxCell>
        <mxCell id="1A_BG_B9vaxSZ9kSDvP0-39" value="DigitalPin" style="rounded=0;whiteSpace=wrap;html=1;fillColor=#d5e8d4;strokeColor=#82b366;" vertex="1" parent="1A_BG_B9vaxSZ9kSDvP0-8">
          <mxGeometry x="148.56" y="200" width="60" height="20" as="geometry" />
        </mxCell>
        <mxCell id="1A_BG_B9vaxSZ9kSDvP0-40" style="rounded=0;orthogonalLoop=1;jettySize=auto;html=1;exitX=0.5;exitY=0;exitDx=0;exitDy=0;entryX=0.25;entryY=1;entryDx=0;entryDy=0;" edge="1" parent="1A_BG_B9vaxSZ9kSDvP0-8" source="1A_BG_B9vaxSZ9kSDvP0-41" target="1A_BG_B9vaxSZ9kSDvP0-49">
          <mxGeometry relative="1" as="geometry" />
        </mxCell>
        <mxCell id="1A_BG_B9vaxSZ9kSDvP0-41" value="I2C" style="rounded=0;whiteSpace=wrap;html=1;fillColor=#d5e8d4;strokeColor=#82b366;" vertex="1" parent="1A_BG_B9vaxSZ9kSDvP0-8">
          <mxGeometry x="218.56" y="200" width="30" height="20" as="geometry" />
        </mxCell>
        <mxCell id="1A_BG_B9vaxSZ9kSDvP0-42" style="rounded=0;orthogonalLoop=1;jettySize=auto;html=1;exitX=0.5;exitY=0;exitDx=0;exitDy=0;entryX=0.75;entryY=1;entryDx=0;entryDy=0;" edge="1" parent="1A_BG_B9vaxSZ9kSDvP0-8" source="1A_BG_B9vaxSZ9kSDvP0-43" target="1A_BG_B9vaxSZ9kSDvP0-49">
          <mxGeometry relative="1" as="geometry" />
        </mxCell>
        <mxCell id="1A_BG_B9vaxSZ9kSDvP0-43" value="&lt;div&gt;I2S&lt;/div&gt;" style="rounded=0;whiteSpace=wrap;html=1;fillColor=#d5e8d4;strokeColor=#82b366;" vertex="1" parent="1A_BG_B9vaxSZ9kSDvP0-8">
          <mxGeometry x="268.56" y="200" width="30" height="20" as="geometry" />
        </mxCell>
        <mxCell id="1A_BG_B9vaxSZ9kSDvP0-44" style="rounded=0;orthogonalLoop=1;jettySize=auto;html=1;exitX=0.5;exitY=0;exitDx=0;exitDy=0;entryX=0.25;entryY=1;entryDx=0;entryDy=0;" edge="1" parent="1A_BG_B9vaxSZ9kSDvP0-8" source="1A_BG_B9vaxSZ9kSDvP0-45" target="1A_BG_B9vaxSZ9kSDvP0-51">
          <mxGeometry relative="1" as="geometry" />
        </mxCell>
        <mxCell id="1A_BG_B9vaxSZ9kSDvP0-45" value="UART" style="rounded=0;whiteSpace=wrap;html=1;fillColor=#d5e8d4;strokeColor=#82b366;" vertex="1" parent="1A_BG_B9vaxSZ9kSDvP0-8">
          <mxGeometry x="308.56" y="200" width="50" height="20" as="geometry" />
        </mxCell>
        <mxCell id="1A_BG_B9vaxSZ9kSDvP0-46" style="edgeStyle=none;shape=connector;rounded=0;orthogonalLoop=1;jettySize=auto;html=1;exitX=0.5;exitY=0;exitDx=0;exitDy=0;entryX=0.632;entryY=1.008;entryDx=0;entryDy=0;strokeColor=default;align=center;verticalAlign=middle;fontFamily=Helvetica;fontSize=11;fontColor=default;labelBackgroundColor=none;endArrow=classic;entryPerimeter=0;" edge="1" parent="1A_BG_B9vaxSZ9kSDvP0-8" source="1A_BG_B9vaxSZ9kSDvP0-49" target="1A_BG_B9vaxSZ9kSDvP0-61">
          <mxGeometry relative="1" as="geometry" />
        </mxCell>
        <mxCell id="1A_BG_B9vaxSZ9kSDvP0-47" style="edgeStyle=none;shape=connector;rounded=0;orthogonalLoop=1;jettySize=auto;html=1;exitX=0.5;exitY=0;exitDx=0;exitDy=0;entryX=0.25;entryY=1;entryDx=0;entryDy=0;strokeColor=default;align=center;verticalAlign=middle;fontFamily=Helvetica;fontSize=11;fontColor=default;labelBackgroundColor=none;endArrow=classic;" edge="1" parent="1A_BG_B9vaxSZ9kSDvP0-8" source="1A_BG_B9vaxSZ9kSDvP0-49" target="1A_BG_B9vaxSZ9kSDvP0-24">
          <mxGeometry relative="1" as="geometry" />
        </mxCell>
        <mxCell id="1A_BG_B9vaxSZ9kSDvP0-48" style="edgeStyle=none;shape=connector;rounded=0;orthogonalLoop=1;jettySize=auto;html=1;exitX=0.5;exitY=0;exitDx=0;exitDy=0;entryX=0.25;entryY=1;entryDx=0;entryDy=0;strokeColor=default;align=center;verticalAlign=middle;fontFamily=Helvetica;fontSize=11;fontColor=default;labelBackgroundColor=none;endArrow=classic;" edge="1" parent="1A_BG_B9vaxSZ9kSDvP0-8" source="1A_BG_B9vaxSZ9kSDvP0-49" target="1A_BG_B9vaxSZ9kSDvP0-23">
          <mxGeometry relative="1" as="geometry" />
        </mxCell>
        <mxCell id="1A_BG_B9vaxSZ9kSDvP0-49" value="Audio Codec" style="rounded=0;whiteSpace=wrap;html=1;fillColor=#d5e8d4;strokeColor=#82b366;" vertex="1" parent="1A_BG_B9vaxSZ9kSDvP0-8">
          <mxGeometry x="218.56" y="160" width="80" height="20" as="geometry" />
        </mxCell>
        <mxCell id="1A_BG_B9vaxSZ9kSDvP0-50" style="edgeStyle=none;shape=connector;rounded=0;orthogonalLoop=1;jettySize=auto;html=1;exitX=0.5;exitY=0;exitDx=0;exitDy=0;entryX=0.844;entryY=0.978;entryDx=0;entryDy=0;strokeColor=default;align=center;verticalAlign=middle;fontFamily=Helvetica;fontSize=11;fontColor=default;labelBackgroundColor=none;endArrow=classic;entryPerimeter=0;" edge="1" parent="1A_BG_B9vaxSZ9kSDvP0-8" source="1A_BG_B9vaxSZ9kSDvP0-51" target="1A_BG_B9vaxSZ9kSDvP0-61">
          <mxGeometry relative="1" as="geometry" />
        </mxCell>
        <mxCell id="1A_BG_B9vaxSZ9kSDvP0-51" value="&lt;div&gt;ATCommandClient&lt;/div&gt;" style="rounded=0;whiteSpace=wrap;html=1;fillColor=#d5e8d4;strokeColor=#82b366;" vertex="1" parent="1A_BG_B9vaxSZ9kSDvP0-8">
          <mxGeometry x="308.56" y="160" width="110" height="20" as="geometry" />
        </mxCell>
        <mxCell id="1A_BG_B9vaxSZ9kSDvP0-52" style="rounded=0;orthogonalLoop=1;jettySize=auto;html=1;exitX=0.5;exitY=0;exitDx=0;exitDy=0;entryX=0.75;entryY=1;entryDx=0;entryDy=0;" edge="1" parent="1A_BG_B9vaxSZ9kSDvP0-8" source="1A_BG_B9vaxSZ9kSDvP0-53" target="1A_BG_B9vaxSZ9kSDvP0-51">
          <mxGeometry relative="1" as="geometry" />
        </mxCell>
        <mxCell id="1A_BG_B9vaxSZ9kSDvP0-53" value="SPI" style="rounded=0;whiteSpace=wrap;html=1;fillColor=#d5e8d4;strokeColor=#82b366;glass=0;sketch=1;curveFitting=1;jiggle=2;" vertex="1" parent="1A_BG_B9vaxSZ9kSDvP0-8">
          <mxGeometry x="368.56" y="200" width="50" height="20" as="geometry" />
        </mxCell>
        <mxCell id="1A_BG_B9vaxSZ9kSDvP0-54" style="rounded=0;orthogonalLoop=1;jettySize=auto;html=1;exitX=0.5;exitY=0;exitDx=0;exitDy=0;entryX=0.5;entryY=1;entryDx=0;entryDy=0;" edge="1" parent="1A_BG_B9vaxSZ9kSDvP0-8" source="1A_BG_B9vaxSZ9kSDvP0-33" target="1A_BG_B9vaxSZ9kSDvP0-37">
          <mxGeometry relative="1" as="geometry" />
        </mxCell>
        <mxCell id="1A_BG_B9vaxSZ9kSDvP0-55" style="edgeStyle=none;shape=connector;rounded=0;orthogonalLoop=1;jettySize=auto;html=1;exitX=0.5;exitY=0;exitDx=0;exitDy=0;entryX=0.5;entryY=1;entryDx=0;entryDy=0;strokeColor=default;align=center;verticalAlign=middle;fontFamily=Helvetica;fontSize=11;fontColor=default;labelBackgroundColor=default;endArrow=classic;" edge="1" parent="1A_BG_B9vaxSZ9kSDvP0-8" source="1A_BG_B9vaxSZ9kSDvP0-33" target="1A_BG_B9vaxSZ9kSDvP0-39">
          <mxGeometry relative="1" as="geometry" />
        </mxCell>
        <mxCell id="1A_BG_B9vaxSZ9kSDvP0-56" style="edgeStyle=none;shape=connector;rounded=0;orthogonalLoop=1;jettySize=auto;html=1;exitX=0.5;exitY=0;exitDx=0;exitDy=0;entryX=0.5;entryY=1;entryDx=0;entryDy=0;strokeColor=default;align=center;verticalAlign=middle;fontFamily=Helvetica;fontSize=11;fontColor=default;labelBackgroundColor=default;endArrow=classic;" edge="1" parent="1A_BG_B9vaxSZ9kSDvP0-8" source="1A_BG_B9vaxSZ9kSDvP0-33" target="1A_BG_B9vaxSZ9kSDvP0-41">
          <mxGeometry relative="1" as="geometry" />
        </mxCell>
        <mxCell id="1A_BG_B9vaxSZ9kSDvP0-57" style="edgeStyle=none;shape=connector;rounded=0;orthogonalLoop=1;jettySize=auto;html=1;exitX=0.5;exitY=0;exitDx=0;exitDy=0;entryX=0.5;entryY=1;entryDx=0;entryDy=0;strokeColor=default;align=center;verticalAlign=middle;fontFamily=Helvetica;fontSize=11;fontColor=default;labelBackgroundColor=default;endArrow=classic;" edge="1" parent="1A_BG_B9vaxSZ9kSDvP0-8" source="1A_BG_B9vaxSZ9kSDvP0-33" target="1A_BG_B9vaxSZ9kSDvP0-43">
          <mxGeometry relative="1" as="geometry" />
        </mxCell>
        <mxCell id="1A_BG_B9vaxSZ9kSDvP0-58" style="edgeStyle=none;shape=connector;rounded=0;orthogonalLoop=1;jettySize=auto;html=1;exitX=0.5;exitY=0;exitDx=0;exitDy=0;entryX=0.5;entryY=1;entryDx=0;entryDy=0;strokeColor=default;align=center;verticalAlign=middle;fontFamily=Helvetica;fontSize=11;fontColor=default;labelBackgroundColor=default;endArrow=classic;" edge="1" parent="1A_BG_B9vaxSZ9kSDvP0-8" source="1A_BG_B9vaxSZ9kSDvP0-33" target="1A_BG_B9vaxSZ9kSDvP0-45">
          <mxGeometry relative="1" as="geometry" />
        </mxCell>
        <mxCell id="1A_BG_B9vaxSZ9kSDvP0-59" style="edgeStyle=none;shape=connector;rounded=0;orthogonalLoop=1;jettySize=auto;html=1;exitX=0.5;exitY=0;exitDx=0;exitDy=0;entryX=0.5;entryY=1;entryDx=0;entryDy=0;strokeColor=default;align=center;verticalAlign=middle;fontFamily=Helvetica;fontSize=11;fontColor=default;labelBackgroundColor=default;endArrow=classic;" edge="1" parent="1A_BG_B9vaxSZ9kSDvP0-8" source="1A_BG_B9vaxSZ9kSDvP0-33" target="1A_BG_B9vaxSZ9kSDvP0-53">
          <mxGeometry relative="1" as="geometry" />
        </mxCell>
        <mxCell id="1A_BG_B9vaxSZ9kSDvP0-60" style="edgeStyle=none;shape=connector;rounded=0;orthogonalLoop=1;jettySize=auto;html=1;exitX=0.5;exitY=0;exitDx=0;exitDy=0;entryX=0.5;entryY=1;entryDx=0;entryDy=0;strokeColor=default;align=center;verticalAlign=middle;fontFamily=Helvetica;fontSize=11;fontColor=default;labelBackgroundColor=none;endArrow=classic;" edge="1" parent="1A_BG_B9vaxSZ9kSDvP0-8" source="1A_BG_B9vaxSZ9kSDvP0-61" target="1A_BG_B9vaxSZ9kSDvP0-62">
          <mxGeometry relative="1" as="geometry" />
        </mxCell>
        <mxCell id="1A_BG_B9vaxSZ9kSDvP0-61" value="&lt;div&gt;Platform&lt;/div&gt;&lt;div&gt;&lt;font style=&quot;font-size: 7px;&quot;&gt;grouping peripheral instances&lt;/font&gt;&lt;/div&gt;" style="rounded=0;whiteSpace=wrap;html=1;strokeColor=#d6b656;align=center;verticalAlign=middle;fontFamily=Helvetica;fontSize=11;labelBackgroundColor=none;fillColor=#fff2cc;" vertex="1" parent="1A_BG_B9vaxSZ9kSDvP0-8">
          <mxGeometry x="198.56" y="70" width="120" height="30" as="geometry" />
        </mxCell>
        <mxCell id="1A_BG_B9vaxSZ9kSDvP0-62" value="&lt;div&gt;BSP_VoiceMailBox.h&lt;/div&gt;&lt;div&gt;&lt;font style=&quot;font-size: 7px;&quot;&gt;Application interface&lt;/font&gt;&lt;/div&gt;" style="rounded=0;whiteSpace=wrap;html=1;strokeColor=#d6b656;align=center;verticalAlign=middle;fontFamily=Helvetica;fontSize=11;labelBackgroundColor=none;fillColor=#fff2cc;" vertex="1" parent="1A_BG_B9vaxSZ9kSDvP0-8">
          <mxGeometry x="198.56" y="20" width="120" height="30" as="geometry" />
        </mxCell>
        <mxCell id="1A_BG_B9vaxSZ9kSDvP0-63" style="edgeStyle=none;shape=connector;rounded=0;orthogonalLoop=1;jettySize=auto;html=1;exitX=0.5;exitY=0;exitDx=0;exitDy=0;entryX=1;entryY=1;entryDx=0;entryDy=0;strokeColor=default;align=center;verticalAlign=middle;fontFamily=Helvetica;fontSize=11;fontColor=default;labelBackgroundColor=none;endArrow=classic;" edge="1" parent="1A_BG_B9vaxSZ9kSDvP0-8" source="1A_BG_B9vaxSZ9kSDvP0-24" target="1A_BG_B9vaxSZ9kSDvP0-62">
          <mxGeometry relative="1" as="geometry" />
        </mxCell>
        <mxCell id="1A_BG_B9vaxSZ9kSDvP0-64" style="edgeStyle=none;shape=connector;rounded=0;orthogonalLoop=1;jettySize=auto;html=1;exitX=0.5;exitY=0;exitDx=0;exitDy=0;entryX=1;entryY=0.5;entryDx=0;entryDy=0;strokeColor=default;align=center;verticalAlign=middle;fontFamily=Helvetica;fontSize=11;fontColor=default;labelBackgroundColor=none;endArrow=classic;" edge="1" parent="1A_BG_B9vaxSZ9kSDvP0-8" source="1A_BG_B9vaxSZ9kSDvP0-23" target="1A_BG_B9vaxSZ9kSDvP0-62">
          <mxGeometry relative="1" as="geometry" />
        </mxCell>
        <mxCell id="1A_BG_B9vaxSZ9kSDvP0-65" style="rounded=0;orthogonalLoop=1;jettySize=auto;html=1;exitX=0.5;exitY=0;exitDx=0;exitDy=0;entryX=0;entryY=1;entryDx=0;entryDy=0;" edge="1" parent="1A_BG_B9vaxSZ9kSDvP0-8" source="1A_BG_B9vaxSZ9kSDvP0-66" target="1A_BG_B9vaxSZ9kSDvP0-62">
          <mxGeometry relative="1" as="geometry" />
        </mxCell>
        <mxCell id="1A_BG_B9vaxSZ9kSDvP0-66" value="Timer" style="rounded=0;whiteSpace=wrap;html=1;fillColor=#FF99C1;strokeColor=#AC6785;align=center;verticalAlign=middle;fontFamily=Helvetica;fontSize=12;fontColor=default;" vertex="1" parent="1A_BG_B9vaxSZ9kSDvP0-8">
          <mxGeometry x="10" y="200" width="60" height="20" as="geometry" />
        </mxCell>
        <mxCell id="1A_BG_B9vaxSZ9kSDvP0-67" style="edgeStyle=none;shape=connector;rounded=0;orthogonalLoop=1;jettySize=auto;html=1;exitX=1;exitY=0.5;exitDx=0;exitDy=0;entryX=0;entryY=0.75;entryDx=0;entryDy=0;strokeColor=default;align=center;verticalAlign=middle;fontFamily=Helvetica;fontSize=11;fontColor=default;labelBackgroundColor=default;endArrow=classic;" edge="1" parent="1A_BG_B9vaxSZ9kSDvP0-8" source="1A_BG_B9vaxSZ9kSDvP0-68" target="1A_BG_B9vaxSZ9kSDvP0-62">
          <mxGeometry relative="1" as="geometry" />
        </mxCell>
        <mxCell id="1A_BG_B9vaxSZ9kSDvP0-68" value="Updatable" style="rounded=0;whiteSpace=wrap;html=1;fillColor=#FF99C1;strokeColor=#AC6785;align=center;verticalAlign=middle;fontFamily=Helvetica;fontSize=12;fontColor=default;" vertex="1" parent="1A_BG_B9vaxSZ9kSDvP0-8">
          <mxGeometry x="78.56" y="60" width="60" height="20" as="geometry" />
        </mxCell>
        <mxCell id="1A_BG_B9vaxSZ9kSDvP0-69" style="edgeStyle=none;shape=connector;rounded=0;orthogonalLoop=1;jettySize=auto;html=1;exitX=1;exitY=0.5;exitDx=0;exitDy=0;entryX=0;entryY=0.5;entryDx=0;entryDy=0;strokeColor=default;align=center;verticalAlign=middle;fontFamily=Helvetica;fontSize=11;fontColor=default;labelBackgroundColor=default;endArrow=classic;" edge="1" parent="1A_BG_B9vaxSZ9kSDvP0-8" source="1A_BG_B9vaxSZ9kSDvP0-70" target="1A_BG_B9vaxSZ9kSDvP0-62">
          <mxGeometry relative="1" as="geometry" />
        </mxCell>
        <mxCell id="1A_BG_B9vaxSZ9kSDvP0-70" value="Logger" style="rounded=0;whiteSpace=wrap;html=1;fillColor=#FF99C1;strokeColor=#AC6785;align=center;verticalAlign=middle;fontFamily=Helvetica;fontSize=12;fontColor=default;" vertex="1" parent="1A_BG_B9vaxSZ9kSDvP0-8">
          <mxGeometry x="78.56" y="30" width="60" height="20" as="geometry" />
        </mxCell>
        <mxCell id="1A_BG_B9vaxSZ9kSDvP0-71" style="rounded=0;orthogonalLoop=1;jettySize=auto;html=1;exitX=0.5;exitY=0;exitDx=0;exitDy=0;entryX=0.5;entryY=1;entryDx=0;entryDy=0;" edge="1" parent="1A_BG_B9vaxSZ9kSDvP0-8" source="1A_BG_B9vaxSZ9kSDvP0-33" target="1A_BG_B9vaxSZ9kSDvP0-66">
          <mxGeometry relative="1" as="geometry" />
        </mxCell>
        <mxCell id="1A_BG_B9vaxSZ9kSDvP0-72" style="edgeStyle=none;shape=connector;rounded=0;orthogonalLoop=1;jettySize=auto;html=1;exitX=0.5;exitY=0;exitDx=0;exitDy=0;strokeColor=default;align=center;verticalAlign=middle;fontFamily=Helvetica;fontSize=11;fontColor=default;labelBackgroundColor=none;endArrow=classic;" edge="1" parent="1A_BG_B9vaxSZ9kSDvP0-2" source="1A_BG_B9vaxSZ9kSDvP0-5" target="1A_BG_B9vaxSZ9kSDvP0-33">
          <mxGeometry relative="1" as="geometry" />
        </mxCell>
        <mxCell id="1A_BG_B9vaxSZ9kSDvP0-73" style="edgeStyle=none;shape=connector;rounded=0;orthogonalLoop=1;jettySize=auto;html=1;exitX=0.5;exitY=0;exitDx=0;exitDy=0;entryX=0.5;entryY=1;entryDx=0;entryDy=0;strokeColor=default;align=center;verticalAlign=middle;fontFamily=Helvetica;fontSize=11;fontColor=default;labelBackgroundColor=none;endArrow=classic;" edge="1" parent="1A_BG_B9vaxSZ9kSDvP0-2" source="1A_BG_B9vaxSZ9kSDvP0-62" target="1A_BG_B9vaxSZ9kSDvP0-6">
          <mxGeometry relative="1" as="geometry" />
        </mxCell>
        <mxCell id="1A_BG_B9vaxSZ9kSDvP0-74" value="&lt;div&gt;Extern Libs&lt;/div&gt;" style="rounded=1;whiteSpace=wrap;html=1;fontFamily=Helvetica;fontSize=11;labelBackgroundColor=none;fillColor=#ffe6cc;strokeColor=#d79b00;" vertex="1" parent="1">
          <mxGeometry x="10" y="30" width="70" height="30" as="geometry" />
        </mxCell>
        <mxCell id="1A_BG_B9vaxSZ9kSDvP0-75" value="Peripheral OO Classes" style="rounded=1;whiteSpace=wrap;html=1;fontFamily=Helvetica;fontSize=11;labelBackgroundColor=none;fillColor=#d5e8d4;strokeColor=#82b366;" vertex="1" parent="1">
          <mxGeometry x="10" y="70" width="70" height="30" as="geometry" />
        </mxCell>
        <mxCell id="1A_BG_B9vaxSZ9kSDvP0-76" value="Low level abstraction" style="rounded=1;whiteSpace=wrap;html=1;strokeColor=#6c8ebf;align=center;verticalAlign=middle;fontFamily=Helvetica;fontSize=11;fontColor=default;labelBackgroundColor=none;fillColor=#dae8fc;" vertex="1" parent="1">
          <mxGeometry x="10" y="190" width="70" height="30" as="geometry" />
        </mxCell>
        <mxCell id="1A_BG_B9vaxSZ9kSDvP0-77" value="Data processing" style="rounded=1;whiteSpace=wrap;html=1;strokeColor=#9673a6;align=center;verticalAlign=middle;fontFamily=Helvetica;fontSize=11;labelBackgroundColor=none;fillColor=#e1d5e7;" vertex="1" parent="1">
          <mxGeometry x="10" y="110" width="70" height="30" as="geometry" />
        </mxCell>
        <mxCell id="1A_BG_B9vaxSZ9kSDvP0-78" value="&lt;font style=&quot;font-size: 8px;&quot;&gt;Not implemented&lt;/font&gt;" style="rounded=1;whiteSpace=wrap;html=1;sketch=1;curveFitting=1;jiggle=2;" vertex="1" parent="1">
          <mxGeometry x="10" y="230" width="70" height="30" as="geometry" />
        </mxCell>
        <mxCell id="1A_BG_B9vaxSZ9kSDvP0-79" value="" style="rounded=0;whiteSpace=wrap;html=1;strokeColor=none;align=center;verticalAlign=middle;fontFamily=Helvetica;fontSize=11;labelBackgroundColor=none;fillColor=#C6C6C6;fontColor=#333333;" vertex="1" parent="1">
          <mxGeometry x="900" y="40" width="70" height="440" as="geometry" />
        </mxCell>
        <mxCell id="1A_BG_B9vaxSZ9kSDvP0-80" value="Utilities" style="rounded=1;whiteSpace=wrap;html=1;strokeColor=#AC6785;align=center;verticalAlign=middle;fontFamily=Helvetica;fontSize=11;fontColor=default;labelBackgroundColor=none;fillColor=#FF99C1;" vertex="1" parent="1">
          <mxGeometry x="10" y="150" width="70" height="30" as="geometry" />
        </mxCell>
      </root>
    </mxGraphModel>
  </diagram>
</mxfile>
